<?xml version="1.0" encoding="UTF-8"?>
<svg id="Capa_2" data-name="Capa 2" xmlns="http://www.w3.org/2000/svg" xmlns:xlink="http://www.w3.org/1999/xlink" viewBox="0 0 758.35 363.05">
  <defs>
    <style>
      .cls-1 {
        fill: #009fe3;
      }

      .cls-2 {
        fill: #fff;
      }

      .cls-3 {
        filter: url(#drop-shadow-1);
      }
    </style>
    <filter id="drop-shadow-1" x="-18.67" y="-18.12" width="808" height="412" filterUnits="userSpaceOnUse">
      <feOffset dx="6" dy="6"/>
      <feGaussianBlur result="blur" stdDeviation="8"/>
      <feFlood flood-color="#000" flood-opacity="1"/>
      <feComposite in2="blur" operator="in"/>
      <feComposite in="SourceGraphic"/>
    </filter>
  </defs>
  <g id="Capa_1-2" data-name="Capa 1">
    <g class="cls-3">
      <path class="cls-2" d="M3.05,128.71V29.83h29.56c9.94,0,18.41,1.48,25.39,4.43,6.99,2.96,12.61,6.9,16.86,11.82,4.25,4.93,7.36,10.44,9.34,16.53,1.97,6.09,2.96,12.23,2.96,18.41,0,7.35-1.32,13.95-3.96,19.82-2.64,5.87-6.25,10.88-10.82,15.05-4.57,4.17-9.85,7.35-15.85,9.54-6,2.2-12.36,3.29-19.08,3.29H3.05ZM22.53,109.9h11.55c4.92,0,9.4-.65,13.43-1.95,4.03-1.3,7.5-3.2,10.41-5.71,2.91-2.51,5.15-5.66,6.72-9.47,1.57-3.81,2.35-8.17,2.35-13.1,0-6.45-1.05-11.71-3.16-15.79-2.11-4.07-4.7-7.23-7.79-9.47-3.09-2.24-6.25-3.78-9.47-4.64-3.22-.85-5.96-1.28-8.19-1.28h-15.85v61.4Z"/>
      <path class="cls-2" d="M106.64,29.83h19.48v98.89h-19.48V29.83Z"/>
      <path class="cls-2" d="M204.45,53.74c-3.76-2.06-7.59-3.76-11.49-5.11s-7.55-2.02-10.95-2.02c-4.21,0-7.52.85-9.94,2.55-2.42,1.7-3.63,4.25-3.63,7.66,0,2.33.92,4.41,2.76,6.25,1.83,1.84,4.21,3.47,7.12,4.9,2.91,1.43,5.93,2.73,9.07,3.9,2.86,1.07,5.71,2.35,8.53,3.83,2.82,1.48,5.35,3.31,7.59,5.51,2.24,2.2,4.03,4.93,5.37,8.2,1.34,3.27,2.02,7.28,2.02,12.03,0,5.02-1.3,9.67-3.9,13.97-2.6,4.3-6.41,7.77-11.42,10.41-5.02,2.64-11.2,3.96-18.54,3.96-3.76,0-7.59-.38-11.49-1.14s-7.72-1.93-11.49-3.49c-3.76-1.57-7.39-3.56-10.88-5.98l8.6-15.18c2.33,1.7,4.86,3.2,7.59,4.5,2.73,1.3,5.49,2.31,8.26,3.02,2.77.72,5.33,1.07,7.66,1.07s4.68-.34,7.05-1.01c2.37-.67,4.34-1.81,5.91-3.43,1.57-1.61,2.35-3.85,2.35-6.72,0-1.97-.65-3.76-1.95-5.37-1.3-1.61-3.05-3.09-5.24-4.43-2.2-1.34-4.59-2.51-7.19-3.49-3.05-1.16-6.18-2.51-9.4-4.03-3.23-1.52-6.25-3.38-9.07-5.58-2.82-2.19-5.11-4.93-6.85-8.2-1.75-3.27-2.62-7.28-2.62-12.02,0-5.73,1.27-10.7,3.83-14.91,2.55-4.21,6.16-7.55,10.82-10.01,4.65-2.46,10.03-3.83,16.12-4.1,7.97,0,14.44.94,19.42,2.82,4.97,1.88,9.43,4.12,13.37,6.72l-7.39,14.91Z"/>
      <path class="cls-2" d="M229.97,29.83h67.45v18.81h-47.96v21.09h42.46v18.81h-42.46v21.36h49.85v18.81h-69.33V29.83Z"/>
      <path class="cls-2" d="M408,132.74l-74.97-67.71,5.78,3.22.4,60.46h-19.75V25.93h.81l73.36,67.45-4.3-1.88-.4-61.67h19.62v102.92h-.54ZM371.86,20.83c-3.05,0-5.6-.65-7.66-1.95-2.06-1.3-3.94-2.62-5.64-3.96-.99-.81-1.95-1.52-2.89-2.15-.94-.63-1.95-.94-3.02-.94-1.17,0-2.08.45-2.76,1.34-.67.9-1.1,2.02-1.27,3.36-.18,1.34-.18,2.69,0,4.03h-9.41c-.45-3.49-.16-6.81.88-9.94,1.03-3.13,2.69-5.69,4.97-7.66,2.28-1.97,5.17-2.96,8.67-2.96,2.24,0,4.25.63,6.04,1.88,1.79,1.26,3.45,2.51,4.97,3.76,1.26,1.07,2.42,2.02,3.49,2.82,1.08.81,2.15,1.21,3.22,1.21,1.7,0,2.71-1.01,3.02-3.02s.42-4.1.34-6.25h9.4c.63,3.85.45,7.32-.54,10.41-.99,3.09-2.53,5.53-4.64,7.32-2.11,1.79-4.5,2.69-7.19,2.69Z"/>
      <path class="cls-2" d="M428.01,79.4c0-6.81,1.3-13.25,3.9-19.35,2.6-6.09,6.2-11.49,10.82-16.19,4.61-4.7,9.96-8.4,16.06-11.08,6.09-2.69,12.63-4.03,19.62-4.03s13.39,1.34,19.48,4.03c6.09,2.69,11.49,6.38,16.19,11.08,4.7,4.7,8.37,10.1,11.02,16.19,2.64,6.09,3.96,12.54,3.96,19.35s-1.32,13.53-3.96,19.62c-2.64,6.09-6.32,11.44-11.02,16.06-4.7,4.61-10.1,8.22-16.19,10.82-6.09,2.6-12.58,3.9-19.48,3.9s-13.53-1.3-19.62-3.9c-6.09-2.6-11.44-6.2-16.06-10.82-4.62-4.61-8.22-9.96-10.82-16.06-2.6-6.09-3.9-12.63-3.9-19.62ZM448.17,79.4c0,4.39.78,8.49,2.35,12.29,1.57,3.81,3.76,7.17,6.58,10.08,2.82,2.91,6.09,5.17,9.81,6.78,3.71,1.61,7.77,2.42,12.16,2.42s8.13-.81,11.76-2.42c3.63-1.61,6.79-3.87,9.47-6.78,2.69-2.91,4.79-6.27,6.32-10.08,1.52-3.81,2.28-7.9,2.28-12.29s-.79-8.64-2.35-12.49c-1.57-3.85-3.72-7.23-6.45-10.14-2.73-2.91-5.93-5.17-9.61-6.78s-7.66-2.42-11.96-2.42-8.29.81-11.96,2.42c-3.67,1.61-6.9,3.88-9.68,6.78-2.78,2.91-4.93,6.29-6.45,10.14-1.52,3.85-2.28,8.02-2.28,12.49Z"/>
      <path class="cls-2" d="M601.33,53.74c-3.76-2.06-7.59-3.76-11.49-5.11-3.9-1.34-7.55-2.02-10.95-2.02-4.21,0-7.52.85-9.94,2.55-2.42,1.7-3.63,4.25-3.63,7.66,0,2.33.92,4.41,2.75,6.25,1.84,1.84,4.21,3.47,7.12,4.9,2.91,1.43,5.93,2.73,9.07,3.9,2.87,1.07,5.71,2.35,8.53,3.83,2.82,1.48,5.35,3.31,7.59,5.51,2.24,2.2,4.03,4.93,5.37,8.2,1.34,3.27,2.01,7.28,2.01,12.03,0,5.02-1.3,9.67-3.9,13.97-2.6,4.3-6.4,7.77-11.42,10.41-5.02,2.64-11.2,3.96-18.54,3.96-3.76,0-7.59-.38-11.49-1.14s-7.73-1.93-11.49-3.49c-3.76-1.57-7.39-3.56-10.88-5.98l8.6-15.18c2.33,1.7,4.86,3.2,7.59,4.5,2.73,1.3,5.49,2.31,8.26,3.02,2.78.72,5.33,1.07,7.66,1.07s4.68-.34,7.05-1.01c2.37-.67,4.34-1.81,5.91-3.43,1.57-1.61,2.35-3.85,2.35-6.72,0-1.97-.65-3.76-1.95-5.37-1.3-1.61-3.05-3.09-5.24-4.43-2.2-1.34-4.59-2.51-7.19-3.49-3.05-1.16-6.18-2.51-9.41-4.03-3.22-1.52-6.25-3.38-9.07-5.58-2.82-2.19-5.11-4.93-6.85-8.2-1.75-3.27-2.62-7.28-2.62-12.02,0-5.73,1.28-10.7,3.83-14.91,2.55-4.21,6.16-7.55,10.82-10.01,4.66-2.46,10.03-3.83,16.12-4.1,7.97,0,14.44.94,19.41,2.82,4.97,1.88,9.43,4.12,13.37,6.72l-7.39,14.91Z"/>
      <path class="cls-2" d="M696.18,97.95l-36.41-68.12h24.05l25.53,51.32-5.78.4,25.13-51.73h24.05l-37.08,68.12v30.77h-19.48v-30.77Z"/>
      <path class="cls-2" d="M0,176.15h51.32v14.31H14.82v16.05h32.31v14.31H14.82v16.25h37.93v14.31H0v-75.24Z"/>
      <path class="cls-2" d="M60.93,251.39l26.78-42.12,6.95,14.92-15.33,27.19h-18.4ZM61.95,176.15h18.91l49.07,75.24h-19.12l-48.87-75.24ZM95.68,203.75l15.54-27.6h17.99l-25.86,40.38-7.67-12.78Z"/>
      <path class="cls-2" d="M164.99,176.15c6.2,0,11.45,1.04,15.74,3.12,4.29,2.08,7.56,5.01,9.81,8.79,2.25,3.78,3.37,8.26,3.37,13.44,0,3.07-.46,6.15-1.38,9.25-.92,3.1-2.38,5.91-4.4,8.43-2.01,2.52-4.7,4.55-8.07,6.08-3.37,1.53-7.51,2.3-12.42,2.3h-10.63v23.82h-14.82v-75.24h22.8ZM167.55,213.15c2.25,0,4.12-.39,5.62-1.18,1.5-.78,2.67-1.77,3.53-2.96.85-1.19,1.47-2.44,1.84-3.73.37-1.29.56-2.42.56-3.37,0-.75-.12-1.75-.36-3.02-.24-1.26-.73-2.54-1.48-3.83-.75-1.29-1.89-2.39-3.42-3.27-1.53-.88-3.6-1.33-6.19-1.33h-10.63v22.69h10.53Z"/>
      <path class="cls-2" d="M207.21,176.15h51.32v14.31h-36.5v16.05h32.3v14.31h-32.3v16.25h37.92v14.31h-52.75v-75.24Z"/>
      <path class="cls-2" d="M298.09,176.15c4.7,0,8.89.6,12.57,1.79,3.68,1.19,6.76,2.9,9.25,5.11,2.49,2.22,4.38,4.87,5.67,7.97,1.29,3.1,1.94,6.59,1.94,10.48,0,3.07-.46,6.13-1.38,9.2s-2.42,5.86-4.5,8.38c-2.08,2.52-4.82,4.55-8.23,6.08-3.41,1.53-7.63,2.3-12.68,2.3h-10.63v23.92h-14.82v-75.24h22.8ZM300.64,213.15c2.25,0,4.12-.37,5.62-1.12,1.5-.75,2.68-1.7,3.53-2.86.85-1.16,1.46-2.37,1.84-3.63.37-1.26.56-2.44.56-3.53,0-.82-.12-1.86-.36-3.12-.24-1.26-.73-2.54-1.48-3.83-.75-1.29-1.89-2.39-3.43-3.27-1.53-.88-3.6-1.33-6.18-1.33h-10.63v22.69h10.53ZM314.55,222.35l18.61,29.03h-17.28l-19.01-28.62,17.68-.41Z"/>
      <path class="cls-2" d="M345.42,176.15h14.82v75.24h-14.82v-75.24Z"/>
      <path class="cls-2" d="M379.66,176.15h51.32v14.31h-36.5v16.05h32.31v14.31h-32.31v16.25h37.93v14.31h-52.75v-75.24Z"/>
      <path class="cls-2" d="M515.11,254.45l-57.04-51.52,4.4,2.45.31,46h-15.03v-78.2h.61l55.81,51.32-3.27-1.43-.31-46.92h14.92v78.31h-.41Z"/>
      <path class="cls-2" d="M591.38,245.15c-.82.68-2.34,1.6-4.55,2.76-2.22,1.16-4.93,2.18-8.13,3.07-3.21.88-6.75,1.29-10.63,1.23-5.93-.14-11.23-1.21-15.9-3.22-4.67-2.01-8.62-4.75-11.86-8.23-3.24-3.48-5.71-7.46-7.41-11.96-1.7-4.5-2.56-9.3-2.56-14.41,0-5.72.87-10.97,2.61-15.74,1.74-4.77,4.22-8.89,7.46-12.37,3.24-3.48,7.11-6.17,11.6-8.08,4.5-1.91,9.47-2.86,14.93-2.86,5.04,0,9.51.68,13.39,2.04,3.88,1.36,7.05,2.83,9.51,4.4l-5.83,14c-1.7-1.29-3.97-2.64-6.8-4.04-2.83-1.4-6.08-2.1-9.76-2.1-2.86,0-5.6.6-8.23,1.79-2.62,1.19-4.94,2.88-6.95,5.06-2.01,2.18-3.6,4.72-4.75,7.62-1.16,2.9-1.74,6.05-1.74,9.46,0,3.61.53,6.92,1.59,9.92,1.06,3,2.57,5.57,4.55,7.72,1.98,2.15,4.35,3.8,7.11,4.96,2.76,1.16,5.88,1.74,9.36,1.74,4.02,0,7.46-.65,10.33-1.94,2.86-1.29,5.04-2.66,6.54-4.09l6.14,13.29Z"/>
      <path class="cls-2" d="M606.2,176.15h14.82v75.24h-14.82v-75.24Z"/>
      <path class="cls-2" d="M631.96,251.39l33.94-78.2h.82l33.94,78.2h-17.17l-21.67-55,10.73-7.36-25.97,62.36h-14.62ZM655.16,224.19h22.59l5.21,12.47h-32.41l4.6-12.47Z"/>
      <path class="cls-2" d="M751.77,194.34c-2.86-1.57-5.78-2.86-8.74-3.88-2.97-1.02-5.74-1.53-8.33-1.53-3.2,0-5.72.65-7.56,1.94-1.84,1.3-2.76,3.24-2.76,5.83,0,1.77.7,3.36,2.1,4.75,1.39,1.4,3.2,2.64,5.42,3.73,2.21,1.09,4.52,2.08,6.9,2.96,2.18.82,4.35,1.79,6.49,2.91,2.15,1.12,4.07,2.52,5.78,4.19,1.7,1.67,3.07,3.75,4.09,6.24,1.02,2.49,1.53,5.54,1.53,9.15,0,3.82-.99,7.36-2.96,10.63-1.98,3.27-4.87,5.91-8.69,7.92-3.82,2.01-8.52,3.02-14.11,3.02-2.86,0-5.78-.29-8.74-.87-2.96-.58-5.88-1.46-8.74-2.66-2.86-1.19-5.62-2.71-8.28-4.55l6.54-11.55c1.77,1.29,3.7,2.44,5.78,3.42,2.08.99,4.17,1.76,6.29,2.3,2.11.55,4.05.82,5.83.82s3.56-.26,5.37-.77c1.81-.51,3.31-1.38,4.5-2.61,1.19-1.23,1.79-2.93,1.79-5.11,0-1.5-.5-2.86-1.48-4.09-.99-1.23-2.32-2.35-3.99-3.37-1.67-1.02-3.49-1.91-5.47-2.66-2.32-.88-4.7-1.91-7.16-3.07-2.45-1.16-4.75-2.57-6.9-4.24-2.15-1.67-3.88-3.75-5.21-6.24-1.33-2.49-1.99-5.54-1.99-9.15,0-4.36.97-8.14,2.91-11.35,1.94-3.2,4.69-5.74,8.23-7.62,3.54-1.87,7.63-2.91,12.27-3.12,6.07,0,10.99.72,14.77,2.15,3.78,1.43,7.17,3.14,10.17,5.11l-5.62,11.35Z"/>
      <path class="cls-1" d="M21.8,342.89c-3.22.07-6.41-.74-9.57-2.42-3.16-1.68-5.78-4.13-7.86-7.36s-3.12-7.12-3.12-11.69c0-3.29.6-6.46,1.81-9.52,1.21-3.06,2.92-5.81,5.14-8.26,2.22-2.45,4.84-4.4,7.86-5.84,3.02-1.44,6.35-2.17,9.98-2.17,4.37,0,7.66.72,9.87,2.17,2.22,1.45,3.93,3.04,5.14,4.79l-1.01,1.21,1.92-5.94h13.1l-8.06,65.2h-14.11l3.83-30.73,3.43,3.02c-.14,0-.6.39-1.41,1.16-.8.77-1.97,1.66-3.48,2.67-1.51,1.01-3.39,1.9-5.64,2.67s-4.85,1.12-7.81,1.06ZM25.93,331.81c1.54,0,2.99-.25,4.33-.76,1.34-.5,2.6-1.24,3.78-2.22,1.18-.97,2.3-2.2,3.38-3.68l1.61-10.78c-.4-1.07-.94-2.05-1.61-2.92-.67-.87-1.45-1.61-2.32-2.22s-1.85-1.07-2.92-1.41c-1.08-.34-2.25-.5-3.53-.5-2.89,0-5.37.64-7.46,1.91-2.08,1.28-3.66,2.94-4.73,4.99-1.08,2.05-1.61,4.25-1.61,6.6,0,2.22.54,4.15,1.61,5.79,1.07,1.65,2.45,2.92,4.13,3.83,1.68.91,3.46,1.36,5.34,1.36Z"/>
      <path class="cls-1" d="M78.12,344c-3.96,0-7.14-1.23-9.52-3.68-2.39-2.45-3.41-5.63-3.07-9.52l4.03-32.95h14.11l-3.43,27.71c-.07,1.95.25,3.51.96,4.69.7,1.18,2.1,1.76,4.18,1.76s3.98-.71,5.69-2.12c1.71-1.41,3.14-3.34,4.28-5.79,1.14-2.45,1.88-5.22,2.22-8.31l2.22-17.94h14.11l-5.44,44.03h-12.8l-.1-8.77.3,1.61c-1.21,1.81-2.71,3.43-4.48,4.84-1.78,1.41-3.78,2.5-6,3.27-2.22.77-4.64,1.16-7.26,1.16Z"/>
      <path class="cls-1" d="M147.95,331.1c1.34,0,2.64-.23,3.88-.71,1.24-.47,2.5-1.04,3.78-1.71l4.94,10.88c-2.22,1.08-4.55,1.91-7,2.52-2.45.6-4.82.91-7.11.91-4.83,0-9.05-.82-12.64-2.47-3.59-1.65-6.4-4.16-8.41-7.56-2.02-3.39-3.02-7.64-3.02-12.75,0-2.62.49-5.34,1.46-8.16.97-2.82,2.48-5.46,4.54-7.91,2.05-2.45,4.73-4.45,8.06-6,3.33-1.54,7.34-2.32,12.04-2.32,2.55,0,5.09.32,7.61.96,2.52.64,4.84,1.78,6.95,3.43,2.12,1.65,3.93,3.95,5.44,6.9,1.51,2.96,2.57,6.79,3.17,11.49l-35.47,8.77-2.22-7.86,27.61-7.15-4.94,1.51c-.54-2.28-1.6-4.03-3.17-5.24-1.58-1.21-3.41-1.81-5.49-1.81-2.76,0-4.97.57-6.65,1.71-1.68,1.14-2.91,2.62-3.68,4.43-.77,1.81-1.16,3.7-1.16,5.64,0,3.36.62,5.94,1.87,7.76,1.24,1.81,2.75,3.06,4.53,3.73,1.78.67,3.48,1.01,5.09,1.01Z"/>
      <path class="cls-1" d="M220.61,278.5h14.11l-2.32,19.15h10.68l-1.31,10.98h-10.68l-4.03,33.25h-14.11l4.03-33.25h-6.85l1.31-10.98h6.85l2.32-19.15Z"/>
      <path class="cls-1" d="M266.96,297.85l-.4,9.77c1.61-2.62,3.54-4.82,5.79-6.6,2.25-1.78,4.54-3.12,6.85-4.03,2.32-.91,4.28-1.36,5.9-1.36l-2.42,14.11c-3.22-.4-6.11.14-8.67,1.61-2.55,1.48-4.6,3.43-6.15,5.85-1.55,2.42-2.49,4.9-2.82,7.46l-2.12,17.23h-14.01l5.34-44.03h12.7Z"/>
      <path class="cls-1" d="M306.26,342.89c-2.89.07-5.71-.74-8.47-2.42-2.76-1.68-5.02-4.13-6.8-7.36-1.78-3.22-2.67-7.12-2.67-11.69,0-3.29.6-6.46,1.81-9.52,1.21-3.06,2.92-5.81,5.14-8.26,2.22-2.45,4.84-4.4,7.86-5.84,3.02-1.44,6.35-2.17,9.98-2.17,2.96,0,5.36.34,7.2,1.01,1.85.67,3.34,1.53,4.48,2.57,1.14,1.04,2.12,2.17,2.92,3.38l-.9,2.12,2.22-6.85h13.1l-5.34,44.03h-14.11l1.11-9.57.8,3.02c-.13,0-.6.39-1.41,1.16-.81.77-1.97,1.66-3.48,2.67-1.51,1.01-3.39,1.9-5.64,2.67-2.25.77-4.85,1.12-7.81,1.06ZM314.22,331.61c1.34,0,2.64-.25,3.88-.76,1.24-.5,2.43-1.24,3.58-2.22,1.14-.97,2.15-2.2,3.02-3.68l1.31-10.78c-.34-1.48-.98-2.74-1.91-3.78-.94-1.04-2.12-1.85-3.53-2.42-1.41-.57-3.02-.86-4.84-.86-2.28,0-4.23.4-5.84,1.21-1.61.81-2.94,1.85-3.98,3.12-1.04,1.28-1.8,2.64-2.27,4.08-.47,1.45-.7,2.84-.7,4.18,0,2.42.47,4.52,1.41,6.3.94,1.78,2.27,3.16,3.98,4.13,1.71.97,3.68,1.46,5.9,1.46Z"/>
      <path class="cls-1" d="M366.82,342.79c-1.21,0-2.92-.19-5.14-.55-2.22-.37-4.55-1.16-7.01-2.37-2.45-1.21-4.62-3.06-6.5-5.54l6.75-7.36c1.81,2.02,3.46,3.46,4.94,4.33,1.48.87,2.8,1.4,3.98,1.56,1.18.17,2.13.25,2.87.25,2.08,0,3.43-.44,4.03-1.31.6-.87.91-1.68.91-2.42,0-1.01-.42-1.83-1.26-2.47-.84-.64-1.92-1.19-3.23-1.66-1.31-.47-2.67-.97-4.08-1.51-3.49-1.34-6-3.12-7.51-5.34-1.51-2.22-2.26-4.64-2.26-7.25,0-1.34.25-2.87.76-4.59.5-1.71,1.37-3.38,2.62-4.99,1.24-1.61,2.99-2.96,5.24-4.03,2.25-1.07,5.15-1.61,8.72-1.61,2.02,0,4.05.15,6.1.45s4.06.87,6.05,1.71c1.98.84,3.88,2.03,5.69,3.58l-6.35,7.96c-1.41-1.41-2.87-2.48-4.38-3.22-1.51-.74-3.14-1.11-4.89-1.11-1.27,0-2.28.19-3.02.55-.74.37-1.27.86-1.61,1.46s-.5,1.24-.5,1.91c0,1.08.5,1.95,1.51,2.62,1.01.67,2.23,1.24,3.68,1.71,1.44.47,2.87,1.01,4.28,1.61,2.02.81,3.73,1.81,5.14,3.02,1.41,1.21,2.43,2.64,3.07,4.28.64,1.65.82,3.58.55,5.79-.2,1.95-.77,3.81-1.71,5.59-.94,1.78-2.2,3.34-3.78,4.69-1.58,1.34-3.51,2.39-5.79,3.12-2.28.74-4.9,1.11-7.86,1.11Z"/>
      <path class="cls-1" d="M434.43,339.06c-2.02,1.28-4.42,2.28-7.2,3.02-2.79.74-5.53,1.11-8.21,1.11-1.81,0-4.03-.29-6.65-.86-2.62-.57-5.21-1.61-7.76-3.12-2.56-1.51-4.69-3.66-6.4-6.45-1.71-2.79-2.57-6.36-2.57-10.73,0-2.89.5-5.81,1.51-8.77,1.01-2.96,2.52-5.68,4.54-8.16,2.02-2.48,4.57-4.48,7.66-6,3.09-1.51,6.75-2.27,10.98-2.27,4.5,0,8.28.67,11.34,2.02,3.06,1.34,5.56,2.99,7.51,4.94l-7.96,8.57c-.87-.87-2.15-1.75-3.83-2.62-1.68-.87-3.73-1.31-6.15-1.31-1.95,0-3.8.54-5.54,1.61-1.75,1.08-3.16,2.55-4.23,4.43-1.08,1.88-1.61,4.07-1.61,6.55,0,2.02.47,3.83,1.41,5.44.94,1.61,2.28,2.91,4.03,3.88,1.75.97,3.83,1.46,6.25,1.46,1.34,0,2.6-.17,3.78-.5,1.18-.34,2.23-.84,3.17-1.51l5.95,9.27Z"/>
      <path class="cls-1" d="M450.75,297.85h14.11l-5.44,44.03h-14.1l5.44-44.03ZM451.66,282.33c0-2.15.74-3.96,2.22-5.44,1.48-1.48,3.43-2.22,5.84-2.22,1.68,0,3.36.49,5.04,1.46,1.68.97,2.52,2.67,2.52,5.09,0,2.08-.74,3.88-2.22,5.39-1.48,1.51-3.43,2.27-5.84,2.27-1.68,0-3.36-.49-5.04-1.46-1.68-.97-2.52-2.67-2.52-5.09Z"/>
      <path class="cls-1" d="M498.92,331.1c1.34,0,2.64-.23,3.88-.71,1.24-.47,2.5-1.04,3.78-1.71l4.94,10.88c-2.22,1.08-4.55,1.91-7,2.52-2.45.6-4.82.91-7.11.91-4.84,0-9.05-.82-12.65-2.47-3.59-1.65-6.4-4.16-8.41-7.56-2.01-3.39-3.02-7.64-3.02-12.75,0-2.62.48-5.34,1.46-8.16.97-2.82,2.48-5.46,4.54-7.91,2.05-2.45,4.73-4.45,8.06-6,3.33-1.54,7.34-2.32,12.04-2.32,2.55,0,5.09.32,7.61.96,2.52.64,4.84,1.78,6.95,3.43,2.12,1.65,3.93,3.95,5.44,6.9,1.51,2.96,2.57,6.79,3.17,11.49l-35.47,8.77-2.22-7.86,27.61-7.15-4.94,1.51c-.54-2.28-1.6-4.03-3.17-5.24-1.58-1.21-3.41-1.81-5.49-1.81-2.76,0-4.97.57-6.65,1.71-1.68,1.14-2.91,2.62-3.68,4.43-.77,1.81-1.16,3.7-1.16,5.64,0,3.36.62,5.94,1.87,7.76,1.24,1.81,2.75,3.06,4.54,3.73,1.78.67,3.48,1.01,5.09,1.01Z"/>
      <path class="cls-1" d="M548.09,297.85l.3,8.77-.5-1.61c1.88-2.75,4.38-4.99,7.51-6.7,3.12-1.71,6.73-2.57,10.83-2.57s7.47,1.23,9.93,3.68c2.45,2.45,3.51,5.63,3.17,9.52l-4.03,32.95h-14.11l3.43-27.71c.13-1.95-.22-3.51-1.06-4.69-.84-1.17-2.4-1.76-4.69-1.76-2.15,0-4.11.71-5.89,2.12-1.78,1.41-3.24,3.33-4.38,5.74-1.14,2.42-1.91,5.21-2.32,8.36l-2.22,17.94h-14.11l5.34-44.03h12.8Z"/>
      <path class="cls-1" d="M610.77,343.09c-4.16,0-7.89-.97-11.18-2.92-3.29-1.95-5.86-4.55-7.71-7.81-1.85-3.26-2.77-6.8-2.77-10.63,0-3.09.55-6.16,1.66-9.22,1.11-3.06,2.79-5.86,5.04-8.41,2.25-2.55,5.02-4.6,8.31-6.15,3.29-1.54,7.09-2.32,11.39-2.32,3.56,0,6.71.64,9.47,1.91,2.76,1.28,4.87,2.82,6.35,4.64l-2.42,3.22,5.24-43.03h14.01l-9.77,79.51h-14.11l1.11-8.57.7,3.02c-2.49,1.88-4.92,3.48-7.3,4.79s-5.06,1.97-8.01,1.97ZM615.21,331.2c1.47,0,2.87-.25,4.18-.76,1.31-.5,2.57-1.24,3.78-2.22,1.21-.97,2.32-2.2,3.32-3.68l1.31-10.78c-.34-1.48-1.01-2.74-2.02-3.78-1.01-1.04-2.27-1.85-3.78-2.42-1.51-.57-3.21-.86-5.09-.86-2.62,0-4.94.52-6.95,1.56-2.02,1.04-3.58,2.52-4.69,4.43-1.11,1.91-1.66,4.22-1.66,6.9,0,2.35.47,4.4,1.41,6.15.94,1.75,2.28,3.09,4.03,4.03,1.75.94,3.79,1.41,6.15,1.41Z"/>
      <path class="cls-1" d="M677.88,331.1c1.34,0,2.64-.23,3.88-.71,1.24-.47,2.5-1.04,3.78-1.71l4.94,10.88c-2.22,1.08-4.55,1.91-7,2.52-2.45.6-4.82.91-7.11.91-4.83,0-9.05-.82-12.64-2.47-3.59-1.65-6.4-4.16-8.41-7.56-2.02-3.39-3.02-7.64-3.02-12.75,0-2.62.49-5.34,1.46-8.16.97-2.82,2.48-5.46,4.54-7.91,2.05-2.45,4.73-4.45,8.06-6,3.33-1.54,7.34-2.32,12.04-2.32,2.55,0,5.09.32,7.61.96,2.52.64,4.84,1.78,6.95,3.43,2.12,1.65,3.93,3.95,5.44,6.9,1.51,2.96,2.57,6.79,3.17,11.49l-35.47,8.77-2.22-7.86,27.61-7.15-4.94,1.51c-.54-2.28-1.6-4.03-3.17-5.24-1.58-1.21-3.41-1.81-5.49-1.81-2.76,0-4.97.57-6.65,1.71-1.68,1.14-2.91,2.62-3.68,4.43-.77,1.81-1.16,3.7-1.16,5.64,0,3.36.62,5.94,1.87,7.76,1.24,1.81,2.75,3.06,4.53,3.73,1.78.67,3.48,1.01,5.09,1.01Z"/>
      <path class="cls-1" d="M727.05,297.85l.3,8.77-.5-1.61c1.88-2.75,4.38-4.99,7.51-6.7,3.12-1.71,6.73-2.57,10.83-2.57s7.47,1.23,9.93,3.68c2.45,2.45,3.51,5.63,3.17,9.52l-4.03,32.95h-14.1l3.43-27.71c.13-1.95-.22-3.51-1.06-4.69-.84-1.17-2.4-1.76-4.69-1.76-2.15,0-4.12.71-5.9,2.12-1.78,1.41-3.24,3.33-4.38,5.74-1.14,2.42-1.92,5.21-2.32,8.36l-2.22,17.94h-14.11l5.34-44.03h12.8Z"/>
    </g>
  </g>
</svg>